<svg width="86" height="25" viewBox="0 0 86 25" fill="none" xmlns="http://www.w3.org/2000/svg">
    <path d="M4.17142 16.48V3.99999H0.514282V20H9.88571V16.48H4.17142Z" fill="black" />
    <path
        d="M19.5677 8.57142V9.6457C18.8134 8.77713 17.6934 8.25142 16.162 8.25142C13.1677 8.25142 10.6991 10.88 10.6991 14.2857C10.6991 17.6914 13.1677 20.32 16.162 20.32C17.6934 20.32 18.8134 19.7943 19.5677 18.9257V20H22.9962V8.57142H19.5677ZM16.8477 17.0743C15.2705 17.0743 14.1277 16 14.1277 14.2857C14.1277 12.5714 15.2705 11.4971 16.8477 11.4971C18.4248 11.4971 19.5677 12.5714 19.5677 14.2857C19.5677 16 18.4248 17.0743 16.8477 17.0743Z"
        fill="black" />
    <path
        d="M32.2087 8.25142C30.7002 8.25142 29.5573 8.79999 28.9402 9.6457V8.57142H25.5116V20H28.9402V13.76C28.9402 12.1371 29.8087 11.4057 31.0659 11.4057C32.163 11.4057 33.0545 12.0686 33.0545 13.4857V20H36.483V12.9828C36.483 9.89713 34.5173 8.25142 32.2087 8.25142Z"
        fill="black" />
    <path
        d="M47.1346 3.99999V9.6457C46.3803 8.77713 45.2603 8.25142 43.7289 8.25142C40.7346 8.25142 38.2661 10.88 38.2661 14.2857C38.2661 17.6914 40.7346 20.32 43.7289 20.32C45.2603 20.32 46.3803 19.7943 47.1346 18.9257V20H50.5632V3.99999H47.1346ZM44.4146 17.0743C42.8375 17.0743 41.6946 16 41.6946 14.2857C41.6946 12.5714 42.8375 11.4971 44.4146 11.4971C45.9918 11.4971 47.1346 12.5714 47.1346 14.2857C47.1346 16 45.9918 17.0743 44.4146 17.0743Z"
        fill="black" />
    <path
        d="M54.7928 7.5657C55.9128 7.5657 56.85 6.62856 56.85 5.50856C56.85 4.38856 55.9128 3.45142 54.7928 3.45142C53.6728 3.45142 52.7357 4.38856 52.7357 5.50856C52.7357 6.62856 53.6728 7.5657 54.7928 7.5657ZM53.0786 20H56.5071V8.57142H53.0786V20Z"
        fill="black" />
    <path
        d="M65.3018 6.97142V3.67999C61.5075 3.45142 59.7475 5.37142 59.7475 8.57142H58.2161V11.8628H59.7475V20H63.1761V11.8628H65.3018V8.57142H63.1761C63.1761 7.2457 64.0218 6.85713 65.3018 6.97142Z"
        fill="black" />
    <path
        d="M74.2071 8.57142L72.0586 15.5657L69.5214 8.57142H65.75L70.2986 19.4743C69.7957 20.8686 69.0414 21.3714 67.4414 21.3714V24.5714C70.6414 24.7314 72.6757 23.2914 73.9557 19.6571L77.8643 8.57142H74.2071Z"
        fill="black" />
    <path d="M81.168 0.800049H78.078V1.59205H79.206V5.00005H80.034V1.59205H81.168V0.800049Z" fill="black" />
    <path
        d="M85.7402 0.800049H84.8882L83.6882 2.78605L82.4822 0.800049H81.6302V5.00005H82.4582V2.28205L83.6402 4.22605H83.7362L84.9182 2.27605V5.00005H85.7402V0.800049Z"
        fill="black" />
</svg>